<svg width="20" height="20" viewBox="0 0 20 20" fill="none" xmlns="http://www.w3.org/2000/svg">
<path d="M15.8747 4.09167C15.1106 3.32009 14.2005 2.70831 13.1976 2.29197C12.1947 1.87564 11.1189 1.66307 10.033 1.66667C5.48301 1.66667 1.77467 5.375 1.77467 9.925C1.77467 11.3833 2.15801 12.8 2.87467 14.05L1.70801 18.3333L6.08301 17.1833C7.29134 17.8417 8.64967 18.1917 10.033 18.1917C14.583 18.1917 18.2913 14.4833 18.2913 9.93334C18.2913 7.725 17.433 5.65 15.8747 4.09167ZM10.033 16.7917C8.79967 16.7917 7.59134 16.4583 6.53301 15.8333L6.28301 15.6833L3.68301 16.3667L4.37467 13.8333L4.20801 13.575C3.52263 12.4809 3.15878 11.2161 3.15801 9.925C3.15801 6.14167 6.24134 3.05834 10.0247 3.05834C11.858 3.05834 13.583 3.775 14.8747 5.075C15.5144 5.71156 16.0213 6.46879 16.366 7.30278C16.7108 8.13677 16.8865 9.03091 16.883 9.93334C16.8997 13.7167 13.8163 16.7917 10.033 16.7917ZM13.7997 11.6583C13.5913 11.5583 12.5747 11.0583 12.3913 10.9833C12.1997 10.9167 12.0663 10.8833 11.9247 11.0833C11.783 11.2917 11.3913 11.7583 11.2747 11.8917C11.158 12.0333 11.033 12.05 10.8247 11.9417C10.6163 11.8417 9.94967 11.6167 9.16634 10.9167C8.54967 10.3667 8.14134 9.69167 8.01634 9.48334C7.89967 9.275 7.99967 9.16667 8.10801 9.05834C8.19967 8.96667 8.31634 8.81667 8.41634 8.7C8.51634 8.58334 8.55801 8.49167 8.62467 8.35834C8.69134 8.21667 8.65801 8.1 8.60801 8C8.55801 7.9 8.14134 6.88334 7.97467 6.46667C7.80801 6.06667 7.63301 6.11667 7.50801 6.10834H7.10801C6.96634 6.10834 6.74967 6.15834 6.55801 6.36667C6.37467 6.575 5.84134 7.075 5.84134 8.09167C5.84134 9.10834 6.58301 10.0917 6.68301 10.225C6.78301 10.3667 8.14134 12.45 10.208 13.3417C10.6997 13.5583 11.083 13.6833 11.383 13.775C11.8747 13.9333 12.3247 13.9083 12.683 13.8583C13.083 13.8 13.908 13.3583 14.0747 12.875C14.2497 12.3917 14.2497 11.9833 14.1913 11.8917C14.133 11.8 14.008 11.7583 13.7997 11.6583Z" fill="#131313"/>
</svg>
